<svg width="19" height="22" viewBox="0 0 19 22" fill="none" xmlns="http://www.w3.org/2000/svg">
<path fill-rule="evenodd" clip-rule="evenodd" d="M2.70317 0C1.21078 0 0 1.21078 0 2.70317V19.2968C0 20.7892 1.21078 22 2.70317 22H15.6093C17.1017 22 18.3125 20.7892 18.3125 19.2968V6.03466L12.2779 0H2.70317ZM1.71886 2.70317C1.71886 2.16008 2.16008 1.71886 2.70317 1.71886H11.0618V7.25005H16.5937V19.2968C16.5937 19.8399 16.1524 20.2811 15.6093 20.2811H2.70317C2.16008 20.2811 1.71886 19.8399 1.71886 19.2968V2.70317ZM15.3782 5.53119L12.7807 2.93368V5.53119H15.3782Z" fill="#0D0D0D"/>
</svg>
