<svg width="22" height="22" viewBox="0 0 22 22" fill="none" xmlns="http://www.w3.org/2000/svg">
<path fill-rule="evenodd" clip-rule="evenodd" d="M2.75809 3.51739C2.41575 3.51739 2.13738 3.79576 2.13738 4.13809V19.0351C2.13738 19.3774 2.41575 19.6558 2.75809 19.6558H19.3103C19.6526 19.6558 19.931 19.3774 19.931 19.0351V4.13809C19.931 3.79576 19.6526 3.51739 19.3103 3.51739H2.75809ZM0.0683594 4.13809C0.0683594 2.65307 1.27306 1.44836 2.75809 1.44836H19.3103C20.7953 1.44836 22 2.65307 22 4.13809V19.0351C22 20.5201 20.7953 21.7248 19.3103 21.7248H2.75809C1.27306 21.7248 0.0683594 20.5201 0.0683594 19.0351V4.13809Z" fill="#0D0D0D"/>
<path fill-rule="evenodd" clip-rule="evenodd" d="M7.13933 0V4.96565H5.07031V0H7.13933Z" fill="#0D0D0D"/>
<path fill-rule="evenodd" clip-rule="evenodd" d="M15.0371 4.96565V0H17.1061V4.96565H15.0371Z" fill="#0D0D0D"/>
<path fill-rule="evenodd" clip-rule="evenodd" d="M20.9661 9.65386H1.10352V7.58484H20.9661V9.65386Z" fill="#0D0D0D"/>
</svg>
