<svg width="590" height="332" viewBox="0 0 590 332" fill="none" xmlns="http://www.w3.org/2000/svg">
<path d="M131.348 201.396H117.178V166.073H107.525V154.573H117.178V146.389C117.178 136.692 121.447 129.737 135.578 129.737C138.567 129.737 143.259 130.339 143.259 130.339V141.018H138.331C133.309 141.018 131.348 142.546 131.348 146.769V154.573H143.071L142.027 166.073H131.348L131.348 201.396ZM163.86 153.654C163.654 153.654 163.441 153.661 163.231 153.666C150.092 153.666 144.081 163.55 144.081 177.579C144.081 195.252 151.878 202.325 163.334 202.325C169.888 202.325 174.194 199.567 176.811 194.419V201.401H190.288V154.578H176.811V161.778C174.674 157.146 170.248 153.709 163.86 153.654V153.654ZM167.287 164.718C172.805 164.718 176.118 168.567 176.118 175.114L176.13 181.802C176.13 186.214 173.395 191.377 167.287 191.377C157.897 191.377 158.148 181.238 158.148 177.861C158.148 166.502 163.151 164.718 167.287 164.718V164.718ZM195.731 177.992C195.731 172.302 195.459 153.684 219.715 153.684C229.452 153.684 233.518 156.78 233.518 156.78L230.25 166.916C230.25 166.916 226.189 164.68 220.899 164.68C214.122 164.68 209.798 168.608 209.798 175.52L209.805 180.476C209.805 187.118 213.977 191.552 220.912 191.552C225.733 191.552 230.175 189.295 230.175 189.295L233.435 199.218C233.435 199.218 229.717 202.334 219.783 202.334C196.687 202.334 195.732 185.63 195.732 177.992H195.731ZM312.54 153.666C325.679 153.666 331.786 163.55 331.786 177.579C331.786 195.252 323.988 202.325 312.532 202.325C305.978 202.325 301.133 199.567 298.516 194.419V201.401L285.208 201.396V131.161L299.338 129.928V161.144C301.377 155.683 308.079 153.666 312.541 153.666H312.54ZM308.579 164.718C303.061 164.718 299.338 168.567 299.338 175.114L299.325 181.802C299.316 186.214 301.903 191.377 308.579 191.377C317.969 191.377 317.718 181.238 317.718 177.861C317.718 166.502 312.715 164.718 308.579 164.718ZM258.033 153.705C243.131 153.705 235.263 161.83 235.263 176.27V178.952C235.263 197.693 246.312 202.518 259.484 202.518C272.287 202.518 278.082 198.937 278.082 198.937L275.438 189.401C275.438 189.401 268.621 192.301 261.178 192.301C253.461 192.301 250.143 190.334 249.292 182.919H279.212V175.268C279.212 159.605 270.382 153.705 258.033 153.705L258.033 153.705ZM258.393 163.254C263.551 163.254 266.894 166.418 266.71 173.754H249.318C249.62 166.033 253.225 163.255 258.393 163.255V163.254ZM359.959 153.641C344.655 153.641 336.599 162.265 336.599 177.72C336.599 198.925 350.487 202.338 359.985 202.338C373.889 202.338 383.14 194.852 383.14 177.912C383.14 160.281 372.738 153.641 359.959 153.641V153.641ZM359.767 164.756C366.496 164.756 369.162 169.793 369.162 175.525V180.454C369.162 187.399 365.431 191.416 359.741 191.416C354.419 191.416 350.679 187.658 350.679 180.454V175.525C350.679 167.842 355.13 164.756 359.767 164.756V164.756ZM411.288 153.641C395.984 153.641 387.928 162.265 387.928 177.72C387.928 198.925 401.815 202.338 411.314 202.338C425.218 202.338 434.469 194.852 434.469 177.912C434.469 160.281 424.067 153.641 411.288 153.641V153.641ZM411.095 164.756C417.825 164.756 420.491 169.793 420.491 175.525V180.454C420.491 187.399 416.76 191.416 411.07 191.416C405.748 191.416 402.008 187.658 402.008 180.454V175.525C402.008 167.842 406.458 164.756 411.095 164.756V164.756ZM439.808 201.396V131.161L453.978 129.929V177.005L468.037 154.573H483.002L468.336 177.806L483.567 201.396H468.559L453.978 178.49V201.396H439.808Z" fill="white"/>
</svg>
