<svg width="186" height="132" viewBox="0 0 186 132" fill="none" xmlns="http://www.w3.org/2000/svg">
<rect x="31.5" y="25.2939" width="113" height="105" rx="11.5" stroke="#0D0D0D" stroke-width="3"/>
<path d="M49.3086 40.8984V115.187H126.692" stroke="black" stroke-width="3" stroke-linecap="round" stroke-linejoin="round"/>
<path d="M57.8633 88.7202C57.8633 87.0634 59.2064 85.7202 60.8633 85.7202H69.9864C71.6432 85.7202 72.9864 87.0634 72.9864 88.7202V113.685H57.8633V88.7202Z" fill="#5E44FF"/>
<path d="M82.3506 63.4365C82.3506 61.7797 83.6937 60.4365 85.3506 60.4365H94.4737C96.1305 60.4365 97.4737 61.7797 97.4737 63.4365V113.685H82.3506V63.4365Z" fill="#5E44FF"/>
<path d="M106.838 43.4009C106.838 41.744 108.181 40.4009 109.838 40.4009H118.961C120.618 40.4009 121.961 41.744 121.961 43.4009V113.685H106.838V43.4009Z" fill="#5E44FF"/>
<rect x="0.730469" y="71.8618" width="50.4003" height="50.4003" rx="5.60003" fill="#0D0D0D"/>
<path d="M44.08 95.8402C44.3336 99.6066 43.4093 103.359 41.4351 106.576C39.4609 109.793 36.5347 112.317 33.0621 113.797C29.5894 115.277 25.7424 115.64 22.0542 114.836C18.3661 114.031 15.0194 112.1 12.4783 109.308C9.93713 106.517 8.3273 103.004 7.87195 99.2568C7.41661 95.5095 8.13829 91.7133 9.93698 88.3946C11.7357 85.0758 14.5223 82.3988 17.9105 80.7346C21.2987 79.0704 25.1207 78.5015 28.8467 79.1068L28.1467 83.4161C25.315 82.9562 22.4102 83.3885 19.8352 84.6533C17.2601 85.9181 15.1423 87.9526 13.7753 90.4749C12.4083 92.9971 11.8598 95.8822 12.2059 98.7301C12.552 101.578 13.7754 104.248 15.7067 106.369C17.638 108.491 20.1814 109.959 22.9844 110.57C25.7875 111.181 28.7112 110.906 31.3504 109.781C33.9896 108.656 36.2135 106.738 37.7139 104.293C39.2143 101.847 39.9168 98.996 39.724 96.1336L44.08 95.8402Z" fill="white"/>
<path opacity="0.7" d="M28.8565 79.1079C32.9216 79.7705 36.6415 81.7929 39.4077 84.8445C42.1739 87.896 43.8227 91.7959 44.0843 95.9063L39.7273 96.1836C39.5285 93.0597 38.2754 90.0958 36.1731 87.7767C34.0707 85.4575 31.2436 83.9204 28.1542 83.4169L28.8565 79.1079Z" fill="white"/>
<rect x="128.642" y="31.8677" width="50.4003" height="50.4003" rx="5.60003" fill="#0D0D0D"/>
<path d="M137.887 71.2581C170.097 71.2581 146.04 42.2231 170.097 42.2231" stroke="white" stroke-width="3" stroke-linecap="round"/>
</svg>
