<svg width="145" height="132" viewBox="0 0 145 132" fill="none" xmlns="http://www.w3.org/2000/svg">
<path d="M24.1727 39.583L117.456 39.583C122.979 39.583 127.456 44.0602 127.456 49.583V119.833C127.456 125.356 122.979 129.833 117.456 129.833H12.28C6.41372 129.833 1.66235 125.081 1.66235 119.215" stroke="#0D0D0D" stroke-width="3" stroke-miterlimit="10"/>
<path d="M22.8975 108.597L22.8975 34.2739C22.8975 28.4099 18.1438 23.6562 12.2799 23.6562V23.6562C6.41362 23.6562 1.66224 28.4076 1.66224 34.2739L1.66224 119.215" stroke="#0D0D0D" stroke-width="3" stroke-miterlimit="10"/>
<path d="M1.66287 119.215C1.66287 113.349 6.41425 108.597 12.2805 108.597H24.3389" stroke="#0D0D0D" stroke-width="3" stroke-miterlimit="10"/>
<path d="M2.97949 34.0291C2.97949 28.8726 7.15969 24.6924 12.3162 24.6924V24.6924C17.4728 24.6924 21.653 28.8726 21.653 34.0291V109.075H9.18647C6.75042 109.075 4.4543 110.213 2.97949 112.152V112.152V34.0291Z" fill="#0D0D0D"/>
<rect x="32.7129" y="49.6709" width="83.592" height="46.8383" rx="6" fill="#FF462D"/>
<rect x="32.7129" y="104.104" width="37.8751" height="3.73397" rx="1.86698" fill="#CBCBCB"/>
<rect x="78.1768" y="104.104" width="38.1282" height="3.73397" rx="1.86698" fill="#CBCBCB"/>
<rect x="32.7129" y="112.838" width="26.8741" height="3.73397" rx="1.86698" fill="#CBCBCB"/>
<rect x="78.1768" y="112.838" width="29.7191" height="3.73397" rx="1.86698" fill="#CBCBCB"/>
<rect x="88.2705" y="57.3213" width="56.0681" height="55.5171" rx="5" fill="#0D0D0D"/>
<path d="M129.935 72.6514L111.292 97.5081L102.675 88.8902" stroke="white" stroke-width="3" stroke-linecap="round" stroke-linejoin="round"/>
</svg>
