<svg width="128" height="132" viewBox="0 0 128 132" fill="none" xmlns="http://www.w3.org/2000/svg">
<rect x="1.53906" y="24.9839" width="103" height="105" rx="11.5" stroke="#0D0D0D" stroke-width="3"/>
<path d="M59.9813 93.2819C65.3694 91.5534 70.0676 88.155 73.3959 83.5786C76.7241 79.0023 78.5096 73.4856 78.4939 67.827C78.4939 61.0759 75.8121 54.6014 71.0384 49.8276C66.2646 45.0539 59.7901 42.3721 53.039 42.3721C46.2879 42.3721 39.8134 45.0539 35.0397 49.8276C30.2659 54.6014 27.5841 61.0759 27.5841 67.827C27.5684 73.4856 29.3539 79.0023 32.6822 83.5786C36.0104 88.155 40.7086 91.5534 46.0968 93.2819" fill="#FFD12D"/>
<path d="M59.9813 93.2819C65.3694 91.5534 70.0676 88.155 73.3959 83.5786C76.7241 79.0023 78.5096 73.4856 78.4939 67.827C78.4939 61.0759 75.8121 54.6014 71.0384 49.8276C66.2646 45.0539 59.7901 42.3721 53.039 42.3721C46.2879 42.3721 39.8134 45.0539 35.0397 49.8276C30.2659 54.6014 27.5841 61.0759 27.5841 67.827C27.5684 73.4856 29.3539 79.0023 32.6822 83.5786C36.0104 88.155 40.7086 91.5534 46.0968 93.2819" stroke="black" stroke-width="2.95781" stroke-linecap="round" stroke-linejoin="round"/>
<path d="M48.499 92.3025V69.6069H57.5773V92.3025" stroke="black" stroke-width="2.90089" stroke-linecap="round" stroke-linejoin="round"/>
<path d="M48.4991 69.607H43.96C43.0623 69.607 42.1847 69.3408 41.4382 68.8421C40.6918 68.3433 40.11 67.6344 39.7664 66.805C39.4229 65.9756 39.333 65.0629 39.5081 64.1824C39.6833 63.3019 40.1156 62.4931 40.7504 61.8583C41.3852 61.2235 42.194 60.7912 43.0745 60.616C43.955 60.4409 44.8676 60.5308 45.6971 60.8743C46.5265 61.2179 47.2354 61.7997 47.7342 62.5461C48.2329 63.2926 48.4991 64.1702 48.4991 65.0679V69.607Z" stroke="black" stroke-width="2.90089" stroke-linecap="round" stroke-linejoin="round"/>
<path d="M57.5771 69.607H62.1163C63.014 69.607 63.8916 69.3408 64.6381 68.8421C65.3845 68.3433 65.9663 67.6344 66.3099 66.805C66.6534 65.9756 66.7433 65.0629 66.5682 64.1824C66.393 63.3019 65.9607 62.4931 65.3259 61.8583C64.6911 61.2235 63.8823 60.7912 63.0018 60.616C62.1213 60.4409 61.2086 60.5308 60.3792 60.8743C59.5498 61.2179 58.8409 61.7997 58.3421 62.5461C57.8434 63.2926 57.5771 64.1702 57.5771 65.0679V69.607Z" stroke="black" stroke-width="2.90089" stroke-linecap="round" stroke-linejoin="round"/>
<path d="M59.8468 105.787C59.8468 107.593 59.1295 109.324 57.8526 110.601C56.5757 111.878 54.8439 112.595 53.0382 112.595C51.2324 112.595 49.5006 111.878 48.2237 110.601C46.9468 109.324 46.2295 107.593 46.2295 105.787V94.439H59.8468V105.787Z" fill="#0D0D0D" stroke="#0D0D0D" stroke-width="2.90089" stroke-linecap="round" stroke-linejoin="round"/>
<rect x="43.959" y="102.676" width="18.1559" height="3.29843" fill="white"/>
<rect x="68.417" y="1.93408" width="58.5947" height="58.5947" rx="5" fill="#0D0D0D"/>
<path d="M97.7156 15.8872C89.2416 15.8872 82.3711 22.7577 82.3711 31.2317C82.3711 39.7057 89.2416 46.5762 97.7156 46.5762C106.19 46.5762 113.06 39.7057 113.06 31.2317C113.06 22.7577 106.19 15.8872 97.7156 15.8872ZM97.7156 38.9039C93.4786 38.9039 90.0433 35.4687 90.0433 31.2317C90.0433 26.9947 93.4786 23.5594 97.7156 23.5594C101.953 23.5594 105.388 26.9947 105.388 31.2317C105.388 35.4687 101.953 38.9039 97.7156 38.9039Z" fill="white"/>
<path d="M103.31 17.805L102.492 13.6025C102.316 12.701 101.528 12.0508 100.609 12.0508H94.8202C93.9014 12.0508 93.1131 12.701 92.9366 13.6025L92.1196 17.805H103.31ZM92.1196 44.6578L92.9366 48.8603C93.1131 49.7618 93.9014 50.412 94.8202 50.412H100.609C101.528 50.412 102.316 49.7618 102.492 48.8603L103.31 44.6578H92.1196ZM88.8838 19.6732L84.8367 18.2806C83.9678 17.9814 83.0107 18.3401 82.5504 19.1342L79.656 24.148C79.1976 24.944 79.3664 25.9529 80.0588 26.5551L83.2888 29.3632L88.8838 19.6732ZM106.545 42.7896L110.592 44.1821C111.461 44.4813 112.418 44.1227 112.879 43.3267L115.773 38.3129C116.231 37.5169 116.063 36.508 115.37 35.9057L112.14 33.0976L106.545 42.7896ZM83.2888 33.0996L80.0588 35.9076C79.3664 36.5099 79.1976 37.5188 79.656 38.3148L82.5504 43.3286C83.0088 44.1246 83.9678 44.4813 84.8367 44.184L88.8838 42.7915L83.2888 33.0996ZM112.14 29.3632L115.37 26.5551C116.063 25.9529 116.231 24.944 115.773 24.148L112.879 19.1342C112.42 18.3382 111.461 17.9814 110.592 18.2787L106.545 19.6712L112.14 29.3632Z" fill="white"/>
</svg>
