<svg width="590" height="332" viewBox="0 0 590 332" fill="none" xmlns="http://www.w3.org/2000/svg">
<path d="M361.635 139.102C361.324 132.035 360.181 127.177 358.544 122.967C356.855 118.499 354.257 114.498 350.853 111.172C347.527 107.794 343.5 105.17 339.083 103.507C334.849 101.87 330.016 100.728 322.949 100.416C315.83 100.078 313.569 100 295.512 100C277.455 100 275.195 100.078 268.102 100.39C261.035 100.701 256.177 101.845 251.968 103.481C247.499 105.17 243.498 107.768 240.172 111.172C236.794 114.498 234.171 118.525 232.507 122.942C230.87 127.177 229.728 132.009 229.416 139.076C229.078 146.195 229 148.455 229 166.512C229 184.569 229.078 186.83 229.39 193.923C229.701 200.99 230.845 205.848 232.482 210.058C234.171 214.526 236.794 218.527 240.172 221.853C243.498 225.23 247.525 227.855 251.942 229.517C256.177 231.154 261.009 232.297 268.077 232.609C275.169 232.921 277.43 232.998 295.487 232.998C313.544 232.998 315.804 232.921 322.897 232.609C329.964 232.297 334.822 231.154 339.031 229.517C347.969 226.062 355.036 218.995 358.492 210.058C360.128 205.822 361.272 200.99 361.583 193.923C361.895 186.83 361.973 184.569 361.973 166.512C361.973 148.455 361.947 146.195 361.635 139.102ZM349.658 193.403C349.372 199.899 348.281 203.406 347.372 205.744C345.137 211.538 340.538 216.137 334.744 218.372C332.406 219.281 328.873 220.372 322.403 220.657C315.388 220.97 313.284 221.047 295.539 221.047C277.793 221.047 275.663 220.97 268.673 220.657C262.178 220.372 258.671 219.281 256.332 218.372C253.449 217.306 250.824 215.617 248.694 213.409C246.486 211.252 244.797 208.654 243.731 205.771C242.822 203.432 241.731 199.899 241.446 193.43C241.133 186.415 241.056 184.31 241.056 166.564C241.056 148.819 241.133 146.688 241.446 139.7C241.731 133.204 242.822 129.697 243.731 127.359C244.797 124.474 246.486 121.851 248.721 119.719C250.876 117.511 253.474 115.822 256.359 114.758C258.697 113.848 262.231 112.757 268.7 112.471C275.715 112.16 277.82 112.081 295.564 112.081C313.336 112.081 315.44 112.16 322.43 112.471C328.925 112.757 332.432 113.848 334.771 114.758C337.654 115.822 340.279 117.511 342.409 119.719C344.617 121.876 346.306 124.474 347.372 127.359C348.281 129.697 349.372 133.23 349.658 139.7C349.97 146.715 350.048 148.819 350.048 166.564C350.048 184.31 349.97 186.388 349.658 193.403Z" fill="white"/>
<path d="M295.513 132.347C276.651 132.347 261.348 147.65 261.348 166.512C261.348 185.375 276.651 200.678 295.513 200.678C314.376 200.678 329.679 185.375 329.679 166.512C329.679 147.65 314.376 132.347 295.513 132.347ZM295.513 188.675C283.277 188.675 273.351 178.75 273.351 166.512C273.351 154.275 283.277 144.35 295.513 144.35C307.751 144.35 317.676 154.275 317.676 166.512C317.676 178.75 307.751 188.675 295.513 188.675V188.675Z" fill="white"/>
<path d="M339.006 130.996C339.006 135.401 335.435 138.972 331.029 138.972C326.624 138.972 323.053 135.401 323.053 130.996C323.053 126.59 326.624 123.02 331.029 123.02C335.435 123.02 339.006 126.59 339.006 130.996V130.996Z" fill="white"/>
</svg>
