<svg width="150" height="132" viewBox="0 0 150 132" fill="none" xmlns="http://www.w3.org/2000/svg">
<rect x="28.6055" y="26.02" width="93" height="104" rx="8.5" fill="white" stroke="#0D0D0D" stroke-width="3"/>
<rect x="38.6914" y="92.27" width="72.828" height="3.73397" rx="1.86698" fill="#CBCBCB"/>
<rect x="38.6914" y="101.004" width="54.6054" height="3.73397" rx="1.86698" fill="#CBCBCB"/>
<rect x="38.6914" y="109.738" width="65.3601" height="3.73397" rx="1.86698" fill="#CBCBCB"/>
<path d="M107.519 36.6143H42.6914C40.4823 36.6143 38.6914 38.4051 38.6914 40.6143V81.0851C38.6914 83.2942 40.4823 85.0851 42.6914 85.0851H107.519C109.729 85.0851 111.519 83.2942 111.519 81.0851V40.6143C111.519 38.4051 109.729 36.6143 107.519 36.6143Z" fill="#6EE86C"/>
<rect x="0.786133" y="46.1426" width="46.1274" height="46.1274" rx="5" fill="#0D0D0D"/>
<path d="M34.7713 59.2476L19.833 79.1653L12.9277 72.2597" stroke="white" stroke-width="3" stroke-linecap="round" stroke-linejoin="round"/>
<path d="M117.406 117.263C130.72 117.263 141.514 106.469 141.514 93.1541C141.514 79.8392 130.72 69.0454 117.406 69.0454C104.091 69.0454 93.2969 79.8392 93.2969 93.1541C93.2969 106.469 104.091 117.263 117.406 117.263Z" fill="white" stroke="#0D0D0D" stroke-width="3" stroke-linecap="round" stroke-linejoin="round"/>
<path d="M134.453 110.202L147.213 122.962" stroke="#0D0D0D" stroke-width="3" stroke-linecap="round" stroke-linejoin="round"/>
</svg>
