<svg width="590" height="332" viewBox="0 0 590 332" fill="none" xmlns="http://www.w3.org/2000/svg">
<path d="M342.085 141.907C342.157 142.949 342.157 143.991 342.157 145.042C342.157 177.082 317.767 214.033 273.167 214.033V214.013C259.992 214.033 247.091 210.259 236 203.143C237.916 203.374 239.841 203.489 241.771 203.494C252.689 203.503 263.296 199.84 271.885 193.094C261.509 192.897 252.411 186.132 249.232 176.256C252.867 176.957 256.612 176.813 260.18 175.838C248.868 173.553 240.729 163.614 240.729 152.072C240.729 151.966 240.729 151.865 240.729 151.764C244.1 153.642 247.874 154.683 251.734 154.799C241.08 147.678 237.796 133.505 244.229 122.423C256.54 137.571 274.704 146.78 294.202 147.755C292.248 139.334 294.917 130.509 301.216 124.589C310.982 115.409 326.342 115.879 335.522 125.64C340.952 124.569 346.157 122.577 350.92 119.754C349.11 125.367 345.322 130.134 340.261 133.164C345.067 132.597 349.763 131.311 354.185 129.347C350.929 134.225 346.829 138.474 342.085 141.907Z" fill="white"/>
</svg>
