<svg width="590" height="332" viewBox="0 0 590 332" fill="none" xmlns="http://www.w3.org/2000/svg">
<path d="M458.129 190.145H434.323V160.461H428.371V190.145H404.564V115.952H428.371V136.717H446.226L458.129 148.591V190.145H458.129ZM398.642 160.461H374.835V166.413H398.642V190.16H362.95L351.046 178.287V148.591L362.95 136.717H398.642V160.461ZM345.103 160.461H324.272V166.413H345.103V190.16H312.387L300.483 178.287V115.952H324.29V136.717H345.121L345.103 160.461ZM294.54 130.781H270.734V115.952H294.54V130.781ZM294.54 190.145H270.734V136.717H294.54V190.145ZM264.782 190.145H193.412L181.508 178.272V136.717H205.316V166.398H211.267V136.717H235.074V166.398H241.025V136.717H264.833L264.782 190.145ZM175.566 160.461H154.759V166.413H175.589V190.16H142.855L130.952 178.287V115.952H154.759V136.717H175.589L175.566 160.461ZM449.208 130.781H434.328V110H401.68L386.661 130.781H359.977L351.049 139.684V130.781H330.218V110H264.797V130.781H172.739L157.734 110H125V181.242L166.641 222.785H208.283V210.911L220.186 222.785H300.489V210.911L312.393 222.785H351.052V210.911L362.955 222.785H437.316L464.099 196.067V145.621L449.208 130.781Z" fill="#0D0D0D"/>
<path d="M404.591 190.145H428.386V160.461H434.335V190.145H458.13V148.591L446.232 136.717H428.386V115.94H404.591V190.145H404.591ZM300.489 178.272L312.384 190.145H345.104V166.398H324.285V160.461H345.104V136.717H324.285V115.94H300.489V178.272ZM351.052 178.272L362.95 190.145H398.642V166.398H374.847V160.461H398.642V136.717H362.95L351.052 148.591V178.272ZM270.746 115.94H294.541V130.78H270.746V115.94ZM175.566 136.717H154.744V115.94H130.949V178.272L142.847 190.145H175.566V166.398H154.744V160.461H175.566V136.717ZM181.515 178.272L193.409 190.145H264.797V136.717H241.002V166.398H235.051V136.717H211.258V166.398H205.31V136.717H181.515V178.272ZM270.746 136.717H294.541V190.145H270.746V136.717Z" fill="white"/>
</svg>
